<svg width="250" height="250" viewBox="0 0 250 250" xmlns="http://www.w3.org/2000/svg">
<rect width="100%" height="100%" fill="white"/>
<circle cx="101.5" cy="31.5" r="0.5695250980392157" fill="black" />
<circle cx="106.5" cy="31.5" r="1.10135568627451" fill="black" />
<circle cx="111.5" cy="31.5" r="1.10135568627451" fill="black" />
<circle cx="71.5" cy="36.5" r="1.3515517647058823" fill="black" />
<circle cx="101.5" cy="36.5" r="0.6471721568627451" fill="black" />
<circle cx="106.5" cy="36.5" r="1.4791819607843137" fill="black" />
<circle cx="111.5" cy="36.5" r="1.4791819607843137" fill="black" />
<circle cx="66.5" cy="41.5" r="0.9719439215686274" fill="black" />
<circle cx="71.5" cy="41.5" r="1.4489858823529413" fill="black" />
<circle cx="76.5" cy="41.5" r="0.6842141176470589" fill="black" />
<circle cx="101.5" cy="41.5" r="0.6471721568627451" fill="black" />
<circle cx="106.5" cy="41.5" r="1.4791819607843137" fill="black" />
<circle cx="111.5" cy="41.5" r="1.4791819607843137" fill="black" />
<circle cx="66.5" cy="46.5" r="1.3023192156862746" fill="black" />
<circle cx="71.5" cy="46.5" r="1.4791819607843137" fill="black" />
<circle cx="76.5" cy="46.5" r="0.993512549019608" fill="black" />
<circle cx="101.5" cy="46.5" r="0.6471721568627451" fill="black" />
<circle cx="106.5" cy="46.5" r="1.4791819607843137" fill="black" />
<circle cx="111.5" cy="46.5" r="1.4791819607843137" fill="black" />
<circle cx="61.5" cy="51.5" r="0.5695250980392157" fill="black" />
<circle cx="66.5" cy="51.5" r="1.4791819607843137" fill="black" />
<circle cx="71.5" cy="51.5" r="1.4791819607843137" fill="black" />
<circle cx="76.5" cy="51.5" r="1.4791819607843137" fill="black" />
<circle cx="101.5" cy="51.5" r="0.6471721568627451" fill="black" />
<circle cx="106.5" cy="51.5" r="1.4791819607843137" fill="black" />
<circle cx="111.5" cy="51.5" r="1.4791819607843137" fill="black" />
<circle cx="61.5" cy="56.5" r="1.4791819607843137" fill="black" />
<circle cx="66.5" cy="56.5" r="1.4791819607843137" fill="black" />
<circle cx="71.5" cy="56.5" r="1.4791819607843137" fill="black" />
<circle cx="76.5" cy="56.5" r="1.4791819607843137" fill="black" />
<circle cx="81.5" cy="56.5" r="1.1168290196078434" fill="black" />
<circle cx="101.5" cy="56.5" r="0.6471721568627451" fill="black" />
<circle cx="106.5" cy="56.5" r="1.4791819607843137" fill="black" />
<circle cx="111.5" cy="56.5" r="1.4791819607843137" fill="black" />
<circle cx="56.5" cy="61.5" r="0.8912729411764708" fill="black" />
<circle cx="61.5" cy="61.5" r="1.4791819607843137" fill="black" />
<circle cx="66.5" cy="61.5" r="1.4791819607843137" fill="black" />
<circle cx="76.5" cy="61.5" r="1.4791819607843137" fill="black" />
<circle cx="81.5" cy="61.5" r="1.323887843137255" fill="black" />
<circle cx="101.5" cy="61.5" r="0.6471721568627451" fill="black" />
<circle cx="106.5" cy="61.5" r="1.4791819607843137" fill="black" />
<circle cx="111.5" cy="61.5" r="1.4791819607843137" fill="black" />
<circle cx="56.5" cy="66.5" r="1.2203584313725488" fill="black" />
<circle cx="61.5" cy="66.5" r="1.4791819607843137" fill="black" />
<circle cx="66.5" cy="66.5" r="0.9171552941176472" fill="black" />
<circle cx="76.5" cy="66.5" r="1.2906678431372551" fill="black" />
<circle cx="81.5" cy="66.5" r="1.4791819607843137" fill="black" />
<circle cx="86.5" cy="66.5" r="0.6514858823529412" fill="black" />
<circle cx="101.5" cy="66.5" r="0.6471721568627451" fill="black" />
<circle cx="106.5" cy="66.5" r="1.4791819607843137" fill="black" />
<circle cx="111.5" cy="66.5" r="1.4791819607843137" fill="black" />
<circle cx="56.5" cy="71.5" r="1.4791819607843137" fill="black" />
<circle cx="61.5" cy="71.5" r="1.4791819607843137" fill="black" />
<circle cx="66.5" cy="71.5" r="0.6065670588235295" fill="black" />
<circle cx="76.5" cy="71.5" r="1.0754733333333335" fill="black" />
<circle cx="81.5" cy="71.5" r="1.4791819607843137" fill="black" />
<circle cx="86.5" cy="71.5" r="1.4791819607843137" fill="black" />
<circle cx="101.5" cy="71.5" r="0.6471721568627451" fill="black" />
<circle cx="106.5" cy="71.5" r="1.4791819607843137" fill="black" />
<circle cx="111.5" cy="71.5" r="1.4791819607843137" fill="black" />
<circle cx="51.5" cy="76.5" r="1.3515517647058823" fill="black" />
<circle cx="56.5" cy="76.5" r="1.4791819607843137" fill="black" />
<circle cx="61.5" cy="76.5" r="1.32135568627451" fill="black" />
<circle cx="81.5" cy="76.5" r="1.4791819607843137" fill="black" />
<circle cx="86.5" cy="76.5" r="1.4791819607843137" fill="black" />
<circle cx="91.5" cy="76.5" r="0.885669411764706" fill="black" />
<circle cx="101.5" cy="76.5" r="0.6471721568627451" fill="black" />
<circle cx="106.5" cy="76.5" r="1.4791819607843137" fill="black" />
<circle cx="111.5" cy="76.5" r="1.4791819607843137" fill="black" />
<circle cx="46.5" cy="81.5" r="0.7321568627450981" fill="black" />
<circle cx="51.5" cy="81.5" r="1.4662407843137255" fill="black" />
<circle cx="56.5" cy="81.5" r="1.4791819607843137" fill="black" />
<circle cx="61.5" cy="81.5" r="0.6151945098039215" fill="black" />
<circle cx="66.5" cy="81.5" r="0.6151945098039215" fill="black" />
<circle cx="71.5" cy="81.5" r="0.6151945098039215" fill="black" />
<circle cx="76.5" cy="81.5" r="0.6151945098039215" fill="black" />
<circle cx="81.5" cy="81.5" r="1.3342968627450982" fill="black" />
<circle cx="86.5" cy="81.5" r="1.4791819607843137" fill="black" />
<circle cx="91.5" cy="81.5" r="1.182824705882353" fill="black" />
<circle cx="101.5" cy="81.5" r="0.6471721568627451" fill="black" />
<circle cx="106.5" cy="81.5" r="1.4791819607843137" fill="black" />
<circle cx="111.5" cy="81.5" r="1.4791819607843137" fill="black" />
<circle cx="46.5" cy="86.5" r="1.1026454901960785" fill="black" />
<circle cx="51.5" cy="86.5" r="1.4791819607843137" fill="black" />
<circle cx="56.5" cy="86.5" r="1.4791819607843137" fill="black" />
<circle cx="61.5" cy="86.5" r="1.427417254901961" fill="black" />
<circle cx="66.5" cy="86.5" r="1.427417254901961" fill="black" />
<circle cx="71.5" cy="86.5" r="1.427417254901961" fill="black" />
<circle cx="76.5" cy="86.5" r="1.427417254901961" fill="black" />
<circle cx="81.5" cy="86.5" r="1.4791819607843137" fill="black" />
<circle cx="86.5" cy="86.5" r="1.4791819607843137" fill="black" />
<circle cx="91.5" cy="86.5" r="1.4705545098039217" fill="black" />
<circle cx="101.5" cy="86.5" r="0.6471721568627451" fill="black" />
<circle cx="106.5" cy="86.5" r="1.4791819607843137" fill="black" />
<circle cx="111.5" cy="86.5" r="1.4791819607843137" fill="black" />
<circle cx="46.5" cy="91.5" r="1.4791819607843137" fill="black" />
<circle cx="51.5" cy="91.5" r="1.4791819607843137" fill="black" />
<circle cx="56.5" cy="91.5" r="1.4791819607843137" fill="black" />
<circle cx="61.5" cy="91.5" r="1.4791819607843137" fill="black" />
<circle cx="66.5" cy="91.5" r="1.4791819607843137" fill="black" />
<circle cx="71.5" cy="91.5" r="1.4791819607843137" fill="black" />
<circle cx="76.5" cy="91.5" r="1.4791819607843137" fill="black" />
<circle cx="81.5" cy="91.5" r="1.4791819607843137" fill="black" />
<circle cx="86.5" cy="91.5" r="1.4791819607843137" fill="black" />
<circle cx="91.5" cy="91.5" r="1.4791819607843137" fill="black" />
<circle cx="96.5" cy="91.5" r="1.1698835294117647" fill="black" />
<circle cx="101.5" cy="91.5" r="0.6471721568627451" fill="black" />
<circle cx="106.5" cy="91.5" r="1.4791819607843137" fill="black" />
<circle cx="111.5" cy="91.5" r="1.4791819607843137" fill="black" />
<circle cx="41.5" cy="96.5" r="1.1858486274509805" fill="black" />
<circle cx="46.5" cy="96.5" r="1.4791819607843137" fill="black" />
<circle cx="51.5" cy="96.5" r="1.4791819607843137" fill="black" />
<circle cx="86.5" cy="96.5" r="0.6040349019607845" fill="black" />
<circle cx="91.5" cy="96.5" r="1.4791819607843137" fill="black" />
<circle cx="96.5" cy="96.5" r="1.4791819607843137" fill="black" />
<circle cx="101.5" cy="96.5" r="0.7187239215686276" fill="black" />
<circle cx="106.5" cy="96.5" r="1.4791819607843137" fill="black" />
<circle cx="111.5" cy="96.5" r="1.4791819607843137" fill="black" />
<circle cx="41.5" cy="101.5" r="1.3601792156862746" fill="black" />
<circle cx="46.5" cy="101.5" r="1.4791819607843137" fill="black" />
<circle cx="51.5" cy="101.5" r="0.6372549019607844" fill="black" />
<circle cx="91.5" cy="101.5" r="1.3627113725490196" fill="black" />
<circle cx="96.5" cy="101.5" r="1.4791819607843137" fill="black" />
<circle cx="101.5" cy="101.5" r="1.1957658823529413" fill="black" />
<circle cx="106.5" cy="101.5" r="1.4791819607843137" fill="black" />
<circle cx="111.5" cy="101.5" r="1.4791819607843137" fill="black" />
<circle cx="36.5" cy="106.5" r="0.6712729411764705" fill="black" />
<circle cx="41.5" cy="106.5" r="1.4791819607843137" fill="black" />
<circle cx="46.5" cy="106.5" r="1.2936917647058825" fill="black" />
<circle cx="91.5" cy="106.5" r="0.8049984313725491" fill="black" />
<circle cx="96.5" cy="106.5" r="1.4791819607843137" fill="black" />
<circle cx="101.5" cy="106.5" r="1.4791819607843137" fill="black" />
<circle cx="106.5" cy="106.5" r="1.4791819607843137" fill="black" />
<circle cx="111.5" cy="106.5" r="1.4791819607843137" fill="black" />
<circle cx="36.5" cy="111.5" r="1.155652549019608" fill="black" />
<circle cx="41.5" cy="111.5" r="1.1617478431372548" fill="black" />
<circle cx="46.5" cy="111.5" r="0.8136258823529412" fill="black" />
<circle cx="91.5" cy="111.5" r="0.5781525490196077" fill="black" />
<circle cx="96.5" cy="111.5" r="1.1358654901960785" fill="black" />
<circle cx="101.5" cy="111.5" r="1.1617478431372548" fill="black" />
<circle cx="106.5" cy="111.5" r="1.1617478431372548" fill="black" />
<circle cx="111.5" cy="111.5" r="1.1488066666666668" fill="black" />
<circle cx="161.5" cy="126.5" r="0.6644270588235294" fill="black" />
<circle cx="156.5" cy="131.5" r="0.7273513725490196" fill="black" />
<circle cx="161.5" cy="131.5" r="1.444672156862745" fill="black" />
<circle cx="166.5" cy="131.5" r="0.6372549019607844" fill="black" />
<circle cx="196.5" cy="131.5" r="1.3109466666666667" fill="black" />
<circle cx="201.5" cy="131.5" r="1.3109466666666667" fill="black" />
<circle cx="156.5" cy="136.5" r="1.1396874509803923" fill="black" />
<circle cx="161.5" cy="136.5" r="1.4791819607843137" fill="black" />
<circle cx="166.5" cy="136.5" r="0.9978262745098042" fill="black" />
<circle cx="191.5" cy="136.5" r="1.0150811764705883" fill="black" />
<circle cx="196.5" cy="136.5" r="1.4791819607843137" fill="black" />
<circle cx="201.5" cy="136.5" r="1.4791819607843137" fill="black" />
<circle cx="206.5" cy="136.5" r="1.2289858823529412" fill="black" />
<circle cx="66.5" cy="141.5" r="0.9904886274509805" fill="black" />
<circle cx="71.5" cy="141.5" r="1.1772211764705882" fill="black" />
<circle cx="81.5" cy="141.5" r="1.1975474509803923" fill="black" />
<circle cx="86.5" cy="141.5" r="0.6286274509803924" fill="black" />
<circle cx="156.5" cy="141.5" r="1.4662407843137255" fill="black" />
<circle cx="161.5" cy="141.5" r="1.4791819607843137" fill="black" />
<circle cx="166.5" cy="141.5" r="1.4791819607843137" fill="black" />
<circle cx="196.5" cy="141.5" r="1.4791819607843137" fill="black" />
<circle cx="201.5" cy="141.5" r="1.4791819607843137" fill="black" />
<circle cx="66.5" cy="146.5" r="0.6799003921568629" fill="black" />
<circle cx="71.5" cy="146.5" r="1.4187898039215687" fill="black" />
<circle cx="76.5" cy="146.5" r="1.0150811764705883" fill="black" />
<circle cx="81.5" cy="146.5" r="1.3454564705882355" fill="black" />
<circle cx="151.5" cy="146.5" r="1.0280223529411765" fill="black" />
<circle cx="156.5" cy="146.5" r="1.4791819607843137" fill="black" />
<circle cx="161.5" cy="146.5" r="1.4791819607843137" fill="black" />
<circle cx="166.5" cy="146.5" r="1.4791819607843137" fill="black" />
<circle cx="171.5" cy="146.5" r="1.0767631372549018" fill="black" />
<circle cx="71.5" cy="151.5" r="0.6281356862745099" fill="black" />
<circle cx="76.5" cy="151.5" r="1.4791819607843137" fill="black" />
<circle cx="151.5" cy="151.5" r="1.4791819607843137" fill="black" />
<circle cx="156.5" cy="151.5" r="1.4791819607843137" fill="black" />
<circle cx="161.5" cy="151.5" r="1.4144760784313726" fill="black" />
<circle cx="166.5" cy="151.5" r="1.4791819607843137" fill="black" />
<circle cx="171.5" cy="151.5" r="1.2850643137254902" fill="black" />
<circle cx="66.5" cy="156.5" r="0.8049984313725491" fill="black" />
<circle cx="71.5" cy="156.5" r="1.3972211764705884" fill="black" />
<circle cx="76.5" cy="156.5" r="1.26349568627451" fill="black" />
<circle cx="81.5" cy="156.5" r="0.9417478431372551" fill="black" />
<circle cx="146.5" cy="156.5" r="0.9732337254901963" fill="black" />
<circle cx="151.5" cy="156.5" r="1.4791819607843137" fill="black" />
<circle cx="156.5" cy="156.5" r="1.1544101960784316" fill="black" />
<circle cx="166.5" cy="156.5" r="1.319574117647059" fill="black" />
<circle cx="171.5" cy="156.5" r="1.4791819607843137" fill="black" />
<circle cx="176.5" cy="156.5" r="0.5910937254901961" fill="black" />
<circle cx="196.5" cy="156.5" r="1.10135568627451" fill="black" />
<circle cx="201.5" cy="156.5" r="1.10135568627451" fill="black" />
<circle cx="66.5" cy="161.5" r="1.3429243137254903" fill="black" />
<circle cx="81.5" cy="161.5" r="1.371338823529412" fill="black" />
<circle cx="86.5" cy="161.5" r="0.5849984313725491" fill="black" />
<circle cx="146.5" cy="161.5" r="1.4791819607843137" fill="black" />
<circle cx="151.5" cy="161.5" r="1.4705545098039217" fill="black" />
<circle cx="156.5" cy="161.5" r="0.7709803921568629" fill="black" />
<circle cx="166.5" cy="161.5" r="1.10135568627451" fill="black" />
<circle cx="171.5" cy="161.5" r="1.4791819607843137" fill="black" />
<circle cx="176.5" cy="161.5" r="1.4791819607843137" fill="black" />
<circle cx="196.5" cy="161.5" r="1.4791819607843137" fill="black" />
<circle cx="201.5" cy="161.5" r="1.4791819607843137" fill="black" />
<circle cx="81.5" cy="166.5" r="0.6083486274509804" fill="black" />
<circle cx="141.5" cy="166.5" r="1.1612560784313726" fill="black" />
<circle cx="146.5" cy="166.5" r="1.4791819607843137" fill="black" />
<circle cx="151.5" cy="166.5" r="1.4076301960784314" fill="black" />
<circle cx="171.5" cy="166.5" r="1.4791819607843137" fill="black" />
<circle cx="176.5" cy="166.5" r="1.4791819607843137" fill="black" />
<circle cx="181.5" cy="166.5" r="0.8740180392156862" fill="black" />
<circle cx="196.5" cy="166.5" r="1.4791819607843137" fill="black" />
<circle cx="201.5" cy="166.5" r="1.4791819607843137" fill="black" />
<circle cx="141.5" cy="171.5" r="1.4489858823529413" fill="black" />
<circle cx="146.5" cy="171.5" r="1.4791819607843137" fill="black" />
<circle cx="151.5" cy="171.5" r="1.0237086274509806" fill="black" />
<circle cx="171.5" cy="171.5" r="1.114296862745098" fill="black" />
<circle cx="176.5" cy="171.5" r="1.4791819607843137" fill="black" />
<circle cx="181.5" cy="171.5" r="1.153120392156863" fill="black" />
<circle cx="196.5" cy="171.5" r="1.4791819607843137" fill="black" />
<circle cx="201.5" cy="171.5" r="1.4791819607843137" fill="black" />
<circle cx="136.5" cy="176.5" r="0.8313725490196079" fill="black" />
<circle cx="141.5" cy="176.5" r="1.4791819607843137" fill="black" />
<circle cx="146.5" cy="176.5" r="1.4791819607843137" fill="black" />
<circle cx="151.5" cy="176.5" r="1.3515517647058823" fill="black" />
<circle cx="156.5" cy="176.5" r="1.3515517647058823" fill="black" />
<circle cx="161.5" cy="176.5" r="1.3515517647058823" fill="black" />
<circle cx="166.5" cy="176.5" r="1.3515517647058823" fill="black" />
<circle cx="171.5" cy="176.5" r="1.3929074509803923" fill="black" />
<circle cx="176.5" cy="176.5" r="1.4791819607843137" fill="black" />
<circle cx="181.5" cy="176.5" r="1.4748682352941178" fill="black" />
<circle cx="196.5" cy="176.5" r="1.4791819607843137" fill="black" />
<circle cx="201.5" cy="176.5" r="1.4791819607843137" fill="black" />
<circle cx="136.5" cy="181.5" r="1.2807505882352943" fill="black" />
<circle cx="141.5" cy="181.5" r="1.4791819607843137" fill="black" />
<circle cx="146.5" cy="181.5" r="1.4791819607843137" fill="black" />
<circle cx="151.5" cy="181.5" r="1.4791819607843137" fill="black" />
<circle cx="156.5" cy="181.5" r="1.4791819607843137" fill="black" />
<circle cx="161.5" cy="181.5" r="1.4791819607843137" fill="black" />
<circle cx="166.5" cy="181.5" r="1.4791819607843137" fill="black" />
<circle cx="171.5" cy="181.5" r="1.4791819607843137" fill="black" />
<circle cx="176.5" cy="181.5" r="1.4791819607843137" fill="black" />
<circle cx="181.5" cy="181.5" r="1.4791819607843137" fill="black" />
<circle cx="186.5" cy="181.5" r="1.23027568627451" fill="black" />
<circle cx="196.5" cy="181.5" r="1.4791819607843137" fill="black" />
<circle cx="201.5" cy="181.5" r="1.4791819607843137" fill="black" />
<circle cx="131.5" cy="186.5" r="0.5941176470588236" fill="black" />
<circle cx="136.5" cy="186.5" r="1.4791819607843137" fill="black" />
<circle cx="141.5" cy="186.5" r="1.4791819607843137" fill="black" />
<circle cx="176.5" cy="186.5" r="0.6299172549019608" fill="black" />
<circle cx="181.5" cy="186.5" r="1.4791819607843137" fill="black" />
<circle cx="186.5" cy="186.5" r="1.4791819607843137" fill="black" />
<circle cx="196.5" cy="186.5" r="1.4791819607843137" fill="black" />
<circle cx="201.5" cy="186.5" r="1.4791819607843137" fill="black" />
<circle cx="131.5" cy="191.5" r="1.3127282352941179" fill="black" />
<circle cx="136.5" cy="191.5" r="1.4791819607843137" fill="black" />
<circle cx="141.5" cy="191.5" r="1.0922364705882353" fill="black" />
<circle cx="181.5" cy="191.5" r="1.3368290196078432" fill="black" />
<circle cx="186.5" cy="191.5" r="1.4791819607843137" fill="black" />
<circle cx="191.5" cy="191.5" r="0.8912729411764708" fill="black" />
<circle cx="196.5" cy="191.5" r="1.4791819607843137" fill="black" />
<circle cx="201.5" cy="191.5" r="1.4791819607843137" fill="black" />
<circle cx="126.5" cy="196.5" r="0.7230376470588237" fill="black" />
<circle cx="131.5" cy="196.5" r="1.4791819607843137" fill="black" />
<circle cx="136.5" cy="196.5" r="1.4619270588235294" fill="black" />
<circle cx="181.5" cy="196.5" r="0.8912729411764708" fill="black" />
<circle cx="186.5" cy="196.5" r="1.4791819607843137" fill="black" />
<circle cx="191.5" cy="196.5" r="1.4791819607843137" fill="black" />
<circle cx="196.5" cy="196.5" r="1.4791819607843137" fill="black" />
<circle cx="201.5" cy="196.5" r="1.4791819607843137" fill="black" />
<circle cx="126.5" cy="201.5" r="1.2376133333333335" fill="black" />
<circle cx="131.5" cy="201.5" r="1.4791819607843137" fill="black" />
<circle cx="136.5" cy="201.5" r="1.1488066666666668" fill="black" />
<circle cx="181.5" cy="201.5" r="0.5738388235294117" fill="black" />
<circle cx="186.5" cy="201.5" r="1.4791819607843137" fill="black" />
<circle cx="191.5" cy="201.5" r="1.4791819607843137" fill="black" />
<circle cx="196.5" cy="201.5" r="1.4791819607843137" fill="black" />
<circle cx="201.5" cy="201.5" r="1.4791819607843137" fill="black" />
</svg>